<?xml version="1.0" encoding="UTF-8"?>
<svg id="Camada_1" xmlns="http://www.w3.org/2000/svg" version="1.1" viewBox="0 0 1912.5 480.6">
  <!-- Generator: Adobe Illustrator 29.5.1, SVG Export Plug-In . SVG Version: 2.1.0 Build 141)  -->
  <defs>
    <style>
      .st0 {
        fill: #fff;
      }
    </style>
  </defs>
  <path class="st0" d="M303.5,456.9c-25.8,0-55-4.5-85.9-13.5-46.9-13.7-91.2-36.3-124.9-63.6-35.9-29.2-56-61.1-56.5-89.9-.3-19.5,8-36.4,24.1-48.6,33-25.2,94.3-28,164.1-7.7,46.9,13.7,91.2,36.3,124.9,63.6,35.9,29.2,56,61.1,56.5,89.9.3,19.5-8,36.4-24.1,48.6-18.4,14.1-45.6,21.2-78.2,21.2M139.1,255c-26.9,0-46.9,5.6-57.7,13.8-7.3,5.5-10.6,12-10.5,20.5.6,35.7,65,94.1,156.4,120.8,65.3,19.1,114,12.8,133.3-1.9,7.3-5.5,10.6-12,10.5-20.5-.6-35.7-65-94.1-156.4-120.8-28.8-8.4-54.3-11.9-75.6-11.9"/>
  <path class="st0" d="M206.7,77.6c0-29.7,24.1-53.8,53.8-53.8s53.8,24.1,53.8,53.8-24.1,53.8-53.8,53.8-53.8-24.1-53.8-53.8"/>
  <polygon class="st0" points="777.8 64.3 828.5 64.3 828.5 169.4 930 169.4 930 64.3 980.7 64.3 980.7 317.9 930 317.9 930 212.9 828.5 212.9 828.5 317.9 777.8 317.9 777.8 64.3"/>
  <path class="st0" d="M544.1,64.3h106.9c55.8,0,87,27.9,87,77.5,0,35.5-19.9,63.8-56.5,75,39.1,19.6,59.1,59.8,62,101.1h-50.7c-3.6-41.7-32.6-81.5-70.6-87h-27.2v87h-50.7V64.3h-.2ZM652.1,187.5c21.7,0,35.1-14.9,35.1-39.9s-10.9-39.9-35.1-39.9h-57.2v79.7h57.2v.1Z"/>
  <path class="st0" d="M1024.1,64.3h92.4c63.4,0,83.3,13,83.3,54.3,0,18.5-8.7,32.2-34.8,50,36.6,9.8,56.5,35.1,56.5,74.3,0,48.9-30.8,75-92.4,75h-105.1V64.3h.1ZM1106,157.8c37.3-19.2,43.1-23.5,43.1-36.6,0-12-4.3-13.4-36.2-13.4h-38v65.9l31.1-15.9ZM1125.6,274.5c29.3,0,45.3-12,45.3-35.5s-15.6-35.1-47.1-35.1h-20.3l-28.6,14.9v55.8h50.7v-.1Z"/>
  <path class="st0" d="M1247,213.9c0-51.4,27.9-82.6,74.3-82.6,26.4,0,45.6,5.4,45.6,5.4l-9.4,43.5s-17-5.4-33.3-5.4c-19.9,0-30.1,12-30.1,35.9v107.2h-47.1v-104Z"/>
  <path class="st0" d="M1497.3,295.5c-10.1,17.4-26.8,28.3-52.2,27.9-42-1.1-67.4-32.6-67.4-94.2,0-65.2,28.6-97.8,83.3-97.8s83,32.2,83.3,94.2v92.4h-47.1v-22.5h.1ZM1497.3,227.7c0-35.9-12-52.9-36.2-52.9s-36.2,17-36.2,52.9,11.6,52.2,36.2,52.2,36.2-16.7,36.2-52.2"/>
  <path class="st0" d="M1580.6,272.3s20.3,10.5,62,10.5c15.6,0,25-3.3,25-10.1,0-10.1-21-19.6-32.6-25.4-55.1-27.5-65.2-43.1-65.2-68.8,0-33,19.9-48.9,67-48.9,38.4,0,65.2,12.7,65.2,12.7l-9.1,39.9s-19.2-12.7-56.2-12.7c-13.4,0-19.9,4.3-19.9,10.9,0,10.1,23.2,18.5,47.1,30.8,37.3,19.2,50.7,35.5,50.7,63.4,0,33.3-23.2,50.7-72.5,50.7-44.9,0-70.6-12.7-70.6-12.7l9.1-40.3Z"/>
  <path class="st0" d="M1768.3,58.9c14.5,0,24.3,9.8,24.3,24.6s-9.8,24.3-24.3,24.3-24.3-9.8-24.3-24.3,9.8-24.6,24.3-24.6M1744.7,140.4l47.1-9.1v186.6h-47.1v-177.5Z"/>
  <polygon class="st0" points="1829.1 64.3 1876.2 55.3 1876.2 317.9 1829.1 317.9 1829.1 64.3"/>
  <path class="st0" d="M544.1,388h17.2c9.9,0,15.2,4.6,15.2,13.4,0,7-3.7,12.1-10.7,13.5,7.1,3.4,11.1,10.7,11.7,18h-7.2c-.5-7.3-6-15.3-13.5-16.2h-5.6v16.3h-7.1v-45h0ZM562.3,410.6c4.7,0,7.1-3.5,7.1-8.3,0-5.1-2.6-8.1-7.6-8.1h-10.7v16.5h11.2v-.1Z"/>
  <path class="st0" d="M658.2,407.4l-1.3,6.1h-19.5c.3,11,2.6,13.3,10.2,13.3h12.2v6.1h-12c-13.4,0-17.5-5.7-17.5-22.5s4.1-22.5,17.5-22.5h12v6.1h-12.2c-7.6,0-9.9,2.2-10.2,13.3h20.8v.1Z"/>
  <path class="st0" d="M743.4,431.8s-6.1,2-12,2c-13,0-18.8-7.2-18.8-23.3s5.8-23.3,18.8-23.3c5.9,0,12,1.9,12,1.9v6.1s-5.5-1.9-11.6-1.9c-8.5,0-12.1,4.2-12.1,17.2s3.7,17.1,12.3,17.1c6,0,11.5-1.9,11.5-1.9v6.1h-.1Z"/>
  <path class="st0" d="M803.8,388v27.1c0,9.3,2.6,12.5,9.9,12.5s10.3-3.4,10.3-12.5v-27.1h7.1v27.1c0,12.8-5.6,18.8-17.3,18.8s-17-5.9-17-18.8v-27.1h7Z"/>
  <path class="st0" d="M886.7,388h17.2c9.9,0,15.2,4.6,15.2,13.4,0,7-3.7,12.1-10.7,13.5,7.1,3.4,11.1,10.7,11.7,18h-7.2c-.5-7.3-6-15.3-13.5-16.2h-5.6v16.3h-7.1v-45h0ZM904.9,410.6c4.7,0,7.1-3.5,7.1-8.3,0-5.1-2.6-8.1-7.6-8.1h-10.7v16.5h11.2v-.1Z"/>
  <path class="st0" d="M973.5,425.3s5.2,2.6,13.2,2.6,9.9-1.2,9.9-5.1-3.1-6.1-9.2-9.6c-12.1-6.8-14.5-9.6-14.5-16,0-7,4.4-10.1,14.4-10.1,8.1,0,14.3,2.6,14.3,2.6v6.1s-7.6-2.6-13.9-2.6-7.8,1.1-7.8,4.2c0,2.8,1.8,4.6,9,8.7,12.1,6.9,14.8,10.3,14.8,16.2,0,8.3-4.7,11.7-15.7,11.7-9.2,0-14.5-2.6-14.5-2.6v-6.1Z"/>
  <path class="st0" d="M1057,410.5c0-16.1,6.2-23.4,18.9-23.4s18.9,7.4,18.9,23.4-6,23.4-18.9,23.4-18.9-7.3-18.9-23.4M1087.7,410.5c0-13-3.5-17.3-11.9-17.3s-11.9,4.4-11.9,17.3,3.8,17.3,11.9,17.3c8.5,0,11.9-4.3,11.9-17.3"/>
  <path class="st0" d="M1148.7,425.3s5.2,2.6,13.2,2.6,9.9-1.2,9.9-5.1-3.1-6.1-9.2-9.6c-12.1-6.8-14.5-9.6-14.5-16,0-7,4.4-10.1,14.4-10.1,8.1,0,14.3,2.6,14.3,2.6v6.1s-7.6-2.6-13.9-2.6-7.8,1.1-7.8,4.2c0,2.8,1.8,4.6,9,8.7,12.1,6.9,14.8,10.3,14.8,16.2,0,8.3-4.7,11.7-15.7,11.7-9.2,0-14.5-2.6-14.5-2.6v-6.1h0Z"/>
  <polygon class="st0" points="1298.5 388 1305.6 388 1305.6 407.4 1325.5 407.4 1325.5 388 1332.5 388 1332.5 433 1325.5 433 1325.5 413.5 1305.6 413.5 1305.6 433 1298.5 433 1298.5 388"/>
  <path class="st0" d="M1395.3,388v27.1c0,9.3,2.6,12.5,9.9,12.5s10.3-3.4,10.3-12.5v-27.1h7.1v27.1c0,12.8-5.6,18.8-17.3,18.8s-17-5.9-17-18.8v-27.1h7Z"/>
  <polygon class="st0" points="1478.2 388 1488.8 388 1499.3 422.8 1509.6 388 1520.1 388 1520.1 433 1513 433 1513 399 1502.9 433 1495.4 433 1485.3 399 1485.3 433 1478.2 433 1478.2 388"/>
  <path class="st0" d="M1665.5,388h7.1c7.4,4.9,15.1,14.5,19.9,24.4v-24.4h7.1v45h-7.1v-1.6c-1.3-10.4-11.1-27.1-19.9-35.2v36.8h-7.1v-45Z"/>
  <path class="st0" d="M1575,433c0-13.9,1.9-34.1,14.7-44.9h6.2c12.8,10.8,14.7,31,14.7,44.9h-7.1c0-2.9-.1-6.6-.4-10.8h-20.6c-.4,4.2-.5,7.9-.5,10.8h-7ZM1602.3,416.1c-1.3-8.1-4-16.9-9.5-22.5-5.6,5.7-8.3,14.4-9.6,22.5h19.1Z"/>
  <path class="st0" d="M1846.1,425.3s5.2,2.6,13.2,2.6,9.9-1.2,9.9-5.1-3.1-6.1-9.2-9.6c-12.1-6.8-14.5-9.6-14.5-16,0-7,4.4-10.1,14.4-10.1,8.1,0,14.3,2.6,14.3,2.6v6.1s-7.6-2.6-13.9-2.6-7.8,1.1-7.8,4.2c0,2.8,1.8,4.6,9,8.7,12.1,6.9,14.8,10.3,14.8,16.2,0,8.3-4.7,11.7-15.7,11.7-9.2,0-14.5-2.6-14.5-2.6v-6.1h0Z"/>
  <path class="st0" d="M1754.3,410.5c0-16.1,6.2-23.4,18.9-23.4s18.9,7.4,18.9,23.4-6,23.4-18.9,23.4-18.9-7.3-18.9-23.4M1785.1,410.5c0-13-3.5-17.3-11.9-17.3s-11.9,4.4-11.9,17.3,3.8,17.3,11.9,17.3c8.5,0,11.9-4.3,11.9-17.3"/>
  <path class="st0" d="M182.6,390.4c-44.5,0-84.3-11.3-111.3-32.6-20.4-16.1-32.2-36.8-34-60-5-64.7,69.5-128.2,169.5-144.5,62.2-10.1,120.7.6,156.5,28.8,20.4,16.1,32.2,36.8,34,60h0c5,64.7-69.5,128.2-169.5,144.5-15.4,2.5-30.5,3.8-45.2,3.8M251.8,184.4c-12.7,0-26,1.1-39.4,3.2-79.6,13-144,62.2-140.5,107.5,1,13.4,8,25.3,20.8,35.3,27.9,21.9,77.5,30.3,129.4,21.8,79.6-13,144-62.2,140.5-107.5-1-13.4-8-25.3-20.8-35.3-20.6-16.2-53.3-25-90-25"/>
</svg>
