<?xml version="1.0" encoding="utf-8"?>
<!-- Generator: Adobe Illustrator 19.0.0, SVG Export Plug-In . SVG Version: 6.00 Build 0)  -->
<svg version="1.1" id="Camada_1" xmlns="http://www.w3.org/2000/svg" xmlns:xlink="http://www.w3.org/1999/xlink" x="0px" y="0px"
	 viewBox="0 0 2432.4 642.4" style="enable-background:new 0 0 2432.4 642.4;" xml:space="preserve">
<style type="text/css">
	.st0{clip-path:url(#SVGID_2_);fill:#0550C9;}
	.st1{clip-path:url(#SVGID_4_);fill:url(#SVGID_5_);}
	.st2{clip-path:url(#SVGID_7_);fill:url(#SVGID_8_);}
	.st3{clip-path:url(#SVGID_10_);fill:#0550C9;}
	.st4{clip-path:url(#SVGID_10_);fill:#041F3D;}
</style>
<g>
	<defs>
		<rect id="SVGID_1_" width="2432.4" height="642.4"/>
	</defs>
	<clipPath id="SVGID_2_">
		<use xlink:href="#SVGID_1_"  style="overflow:visible;"/>
	</clipPath>
	<path class="st0" d="M273.2,116.4c0-37.4,30.3-67.7,67.7-67.7c37.4,0,67.7,30.3,67.7,67.7s-30.3,67.7-67.7,67.7
		C303.5,184.1,273.2,153.8,273.2,116.4"/>
</g>
<g>
	<defs>
		<path id="SVGID_3_" d="M299.2,534.8c-115-33.6-196-107-196.7-151.9c-0.2-10.6,4-18.8,13.2-25.7c13.6-10.3,38.7-17.4,72.6-17.4
			c26.7,0,58.9,4.4,95.1,15c115,33.6,196,107,196.7,151.9c0.2,10.6-4,18.8-13.2,25.7c-13.6,10.3-38.7,17.4-72.6,17.4
			C367.6,549.7,335.4,545.3,299.2,534.8 M89.1,322.3c-20.3,15.5-30.8,36.6-30.4,61.2c0.6,36.2,25.8,76.4,71.1,113.1
			c42.3,34.4,98.1,62.8,157.1,80c38.8,11.3,75.6,17,108.1,17c41,0,75.2-8.9,98.4-26.6c20.3-15.5,30.8-36.6,30.3-61.2
			c-0.6-36.2-25.8-76.4-71.1-113.1c-42.3-34.4-98.1-62.8-157.1-80c-38.8-11.3-75.6-17-108.1-17C146.5,295.7,112.3,304.7,89.1,322.3"
			/>
	</defs>
	<clipPath id="SVGID_4_">
		<use xlink:href="#SVGID_3_"  style="overflow:visible;"/>
	</clipPath>
	
		<linearGradient id="SVGID_5_" gradientUnits="userSpaceOnUse" x1="0" y1="642.41" x2="1" y2="642.41" gradientTransform="matrix(-569.8169 -71.2271 -71.2271 569.8169 46269.4922 -365583.6875)">
		<stop  offset="0" style="stop-color:#041F3D"/>
		<stop  offset="1" style="stop-color:#0070FF"/>
	</linearGradient>
	<polygon class="st1" points="517,651 21.7,589.1 65.5,238.4 560.8,300.3 	"/>
</g>
<g>
	<defs>
		<path id="SVGID_6_" d="M129.9,434.7c-16.1-12.6-24.9-27.6-26.2-44.4c-4.4-57,76.5-119,176.7-135.3c16.8-2.7,33.5-4.1,49.5-4.1
			c46.2,0,87.3,11.1,113.3,31.6c16.1,12.6,24.9,27.6,26.2,44.4c4.4,57-76.5,119-176.7,135.3c-16.8,2.7-33.5,4.1-49.5,4.1
			C197,466.2,155.9,455.1,129.9,434.7 M273.4,211.8C147.5,232.3,53.8,312.2,60.1,393.6c2.3,29.1,17,55.2,42.7,75.4
			c33.9,26.7,84,41,140.1,41c18.4,0,37.5-1.5,56.8-4.7c125.9-20.5,219.6-100.4,213.3-181.8v0c-2.3-29.1-17-55.2-42.7-75.4
			c-33.9-26.7-84-41-140.1-41C311.8,207.1,292.8,208.6,273.4,211.8"/>
	</defs>
	<clipPath id="SVGID_7_">
		<use xlink:href="#SVGID_6_"  style="overflow:visible;"/>
	</clipPath>
	
		<linearGradient id="SVGID_8_" gradientUnits="userSpaceOnUse" x1="0" y1="642.41" x2="1" y2="642.41" gradientTransform="matrix(453.5279 0 0 -453.5279 59.8258 291709.375)">
		<stop  offset="0" style="stop-color:#041F3D"/>
		<stop  offset="1" style="stop-color:#254D9B"/>
	</linearGradient>
	<rect x="53.8" y="207.1" class="st2" width="465.5" height="302.9"/>
</g>
<g>
	<defs>
		<rect id="SVGID_9_" width="2432.4" height="642.4"/>
	</defs>
	<clipPath id="SVGID_10_">
		<use xlink:href="#SVGID_9_"  style="overflow:visible;"/>
	</clipPath>
	<path class="st3" d="M697.7,99.8h134.5c70.2,0,109.4,35.1,109.4,97.5c0,44.7-25.1,80.2-71.1,94.4c49.2,24.6,74.3,75.2,77.9,127.2
		h-63.8c-4.6-52.4-41-102.6-88.9-109.4h-34.2v109.4h-63.8V99.8z M833.5,254.8c27.4,0,44.2-18.7,44.2-50.1
		c0-30.5-13.7-50.1-44.2-50.1h-72v100.3H833.5z"/>
	<polygon class="st3" points="991.7,99.8 1055.5,99.8 1055.5,232 1183.1,232 1183.1,99.8 1246.9,99.8 1246.9,418.9 1183.1,418.9 
		1183.1,286.7 1055.5,286.7 1055.5,418.9 991.7,418.9 	"/>
	<path class="st3" d="M1301.6,99.8h116.2c79.8,0,104.8,16.4,104.8,68.4c0,23.2-10.9,40.6-43.8,62.9c46,12.3,71.1,44.2,71.1,93.4
		c0,61.5-38.7,94.4-116.2,94.4h-132.2V99.8z M1404.6,217.4c46.9-24.2,54.2-29.6,54.2-46c0-15-5.5-16.9-45.6-16.9h-47.9v83
		L1404.6,217.4z M1429.3,364.2c36.9,0,57-15,57-44.7c0-29.2-19.6-44.2-59.3-44.2h-25.5l-36,18.7v70.2H1429.3z"/>
	<path class="st3" d="M1581.9,288c0-64.7,35.1-103.9,93.4-103.9c33.3,0,57.4,6.8,57.4,6.8l-11.9,54.7c0,0-21.4-6.8-41.9-6.8
		c-25.1,0-37.8,15-37.8,45.1v134.9h-59.3V288z"/>
	<path class="st3" d="M1896.9,390.6c-12.8,21.9-33.7,35.6-65.6,35.1c-52.9-1.4-84.8-41-84.8-118.5c0-82,36-123.1,104.8-123.1
		c68.8,0,104.4,40.6,104.8,118.5v116.2h-59.3V390.6z M1896.9,305.4c0-45.1-15-66.5-45.6-66.5c-30.5,0-45.6,21.4-45.6,66.5
		c0,44.7,14.6,65.6,45.6,65.6C1882.3,371,1896.9,350,1896.9,305.4"/>
	<path class="st3" d="M2001.7,361.4c0,0,25.5,13.2,77.9,13.2c19.6,0,31.5-4.1,31.5-12.8c0-12.8-26.4-24.6-41-31.9
		c-69.3-34.6-82-54.2-82-86.6c0-41.5,25.1-61.5,84.3-61.5c48.3,0,82,16,82,16l-11.4,50.1c0,0-24.2-16-70.7-16
		c-16.9,0-25.1,5.5-25.1,13.7c0,12.8,29.2,23.2,59.3,38.7c46.9,24.2,63.8,44.7,63.8,79.8c0,41.9-29.2,63.8-91.2,63.8
		c-56.5,0-88.9-16-88.9-16L2001.7,361.4z"/>
	<path class="st3" d="M2237.8,93c18.2,0,30.5,12.3,30.5,31c0,18.2-12.3,30.5-30.5,30.5c-18.2,0-30.5-12.3-30.5-30.5
		C2207.3,105.3,2219.6,93,2237.8,93 M2208.2,195.5l59.3-11.4v234.7h-59.3V195.5z"/>
	<polygon class="st3" points="2314.4,99.8 2373.7,88.4 2373.7,418.9 2314.4,418.9 	"/>
	<path class="st4" d="M697.7,507.1h21.6c12.5,0,19.1,5.8,19.1,16.9c0,8.8-4.6,15.2-13.5,16.9c9,4.3,14,13.5,14.7,22.7h-9
		c-0.6-9.2-7.5-19.2-16.9-20.4h-7.1v20.4h-8.9V507.1z M720.6,535.5c5.9,0,9-4.4,9-10.5c0-6.5-3.2-10.2-9.5-10.2h-13.5v20.7H720.6z"
		/>
	<path class="st4" d="M841.2,531.4l-1.6,7.7h-24.5c0.3,13.9,3.2,16.8,12.8,16.8h15.3v7.7h-15.1c-16.9,0-22-7.2-22-28.2
		s5.2-28.2,22-28.2h15.1v7.7h-15.3c-9.6,0-12.5,2.8-12.8,16.7H841.2z"/>
	<path class="st4" d="M948.4,562.1c0,0-7.7,2.5-15.1,2.5c-16.4,0-23.6-9.1-23.6-29.3c0-20.3,7.3-29.3,23.6-29.3
		c7.4,0,15.1,2.4,15.1,2.4v7.7c0,0-6.9-2.4-14.6-2.4c-10.7,0-15.3,5.3-15.3,21.6c0,16.2,4.6,21.5,15.4,21.5c7.5,0,14.4-2.4,14.4-2.4
		V562.1z"/>
	<path class="st4" d="M1024.4,507.1v34.1c0,11.7,3.3,15.7,12.5,15.7c9.4,0,12.9-4.3,12.9-15.7v-34.1h8.9v34.1
		c0,16.1-7,23.6-21.8,23.6c-14.7,0-21.4-7.4-21.4-23.6v-34.1H1024.4z"/>
	<path class="st4" d="M1128.7,507.1h21.6c12.5,0,19.1,5.8,19.1,16.9c0,8.8-4.6,15.2-13.5,16.9c9,4.3,14,13.5,14.7,22.7h-9
		c-0.6-9.2-7.5-19.2-16.9-20.4h-7.1v20.4h-8.9V507.1z M1151.6,535.5c5.9,0,9-4.4,9-10.5c0-6.5-3.2-10.2-9.5-10.2h-13.5v20.7H1151.6z
		"/>
	<path class="st4" d="M1237.9,553.9c0,0,6.5,3.2,16.6,3.2c9.6,0,12.4-1.5,12.4-6.5c0-4.9-4-7.7-11.6-12
		c-15.2-8.6-18.2-12.1-18.2-20.1c0-8.8,5.6-12.7,18.1-12.7c10.2,0,18,3.2,18,3.2v7.7c0,0-9.5-3.2-17.4-3.2c-7.5,0-9.8,1.4-9.8,5.2
		c0,3.6,2.3,5.7,11.3,10.9c15.3,8.6,18.6,12.9,18.6,20.3c0,10.5-5.9,14.8-19.7,14.8c-11.5,0-18.2-3.2-18.2-3.2V553.9z"/>
	<path class="st4" d="M1342.9,535.3c0-20.3,7.7-29.5,23.8-29.5c16.2,0,23.8,9.3,23.8,29.5s-7.6,29.5-23.8,29.5
		C1350.6,564.8,1342.9,555.6,1342.9,535.3 M1381.6,535.3c0-16.4-4.4-21.8-14.9-21.8c-10.2,0-14.9,5.6-14.9,21.8
		c0,16.1,4.8,21.8,14.9,21.8C1377.3,557.1,1381.6,551.6,1381.6,535.3"/>
	<path class="st4" d="M1458.3,553.9c0,0,6.5,3.2,16.6,3.2c9.6,0,12.4-1.5,12.4-6.5c0-4.9-4-7.7-11.6-12
		c-15.2-8.6-18.2-12.1-18.2-20.1c0-8.8,5.6-12.7,18.1-12.7c10.2,0,18,3.2,18,3.2v7.7c0,0-9.5-3.2-17.4-3.2c-7.5,0-9.8,1.4-9.8,5.2
		c0,3.6,2.3,5.7,11.3,10.9c15.3,8.6,18.6,12.9,18.6,20.3c0,10.5-5.9,14.8-19.7,14.8c-11.5,0-18.2-3.2-18.2-3.2V553.9z"/>
	<polygon class="st4" points="1646.8,507.1 1655.7,507.1 1655.7,531.4 1680.7,531.4 1680.7,507.1 1689.6,507.1 1689.6,563.6 
		1680.7,563.6 1680.7,539.1 1655.7,539.1 1655.7,563.6 1646.8,563.6 	"/>
	<path class="st4" d="M1768.6,507.1v34.1c0,11.7,3.3,15.7,12.5,15.7c9.4,0,12.9-4.3,12.9-15.7v-34.1h8.9v34.1
		c0,16.1-7,23.6-21.8,23.6c-14.7,0-21.4-7.4-21.4-23.6v-34.1H1768.6z"/>
	<polygon class="st4" points="1872.9,507.1 1886.2,507.1 1899.4,550.8 1912.4,507.1 1925.6,507.1 1925.6,563.6 1916.7,563.6 
		1916.7,520.9 1904,563.6 1894.5,563.6 1881.8,520.9 1881.8,563.6 1872.9,563.6 	"/>
	<path class="st4" d="M1994.6,563.6c0-17.5,2.4-42.9,18.5-56.5h7.8c16.1,13.6,18.5,39.1,18.5,56.5h-8.9c0-3.6-0.1-8.3-0.6-13.6
		h-25.9c-0.5,5.2-0.6,9.9-0.6,13.6H1994.6z M2029,542.3c-1.7-10.2-5.1-21.2-11.9-28.3c-7,7.2-10.4,18.1-12.1,28.3H2029z"/>
	<path class="st4" d="M2108.5,507.1h8.9c9.4,6.2,19,18.2,25,30.7v-30.7h8.9v56.5h-8.9v-2c-1.7-13.1-14-34.1-25-44.3v46.3h-8.9V507.1
		z"/>
	<path class="st4" d="M2220.3,535.3c0-20.3,7.7-29.5,23.8-29.5c16.2,0,23.8,9.3,23.8,29.5s-7.6,29.5-23.8,29.5
		C2228,564.8,2220.3,555.6,2220.3,535.3 M2259,535.3c0-16.4-4.4-21.8-14.9-21.8c-10.2,0-14.9,5.6-14.9,21.8
		c0,16.1,4.8,21.8,14.9,21.8C2254.7,557.1,2259,551.6,2259,535.3"/>
	<path class="st4" d="M2335.7,553.9c0,0,6.5,3.2,16.6,3.2c9.6,0,12.4-1.5,12.4-6.5c0-4.9-4-7.7-11.6-12
		c-15.2-8.6-18.2-12.1-18.2-20.1c0-8.8,5.6-12.7,18.1-12.7c10.2,0,18,3.2,18,3.2v7.7c0,0-9.5-3.2-17.4-3.2c-7.5,0-9.8,1.4-9.8,5.2
		c0,3.6,2.3,5.7,11.3,10.9c15.3,8.6,18.6,12.9,18.6,20.3c0,10.5-5.9,14.8-19.7,14.8c-11.5,0-18.2-3.2-18.2-3.2V553.9z"/>
</g>
</svg>
